<svg fill="#2EC866" width="512px" height="512px" viewBox="0 0 512 512" version="1.1" xmlns="http://www.w3.org/2000/svg"><path d="M 401.86,136.2 L 346.8,136.2 L 346.8,248.8 L 165.12,248.8 L 165.12,136.2 L 110.06,136.2 L 110.06,375.8 L 165.12,375.8 L 165.12,298.1 L 346.8,298.1 L 346.8,375.8 L 401.86,375.8 L 401.86,136.2 Z M 256,32 C 132.3,32 32,132.3 32,256 C 32,379.7 132.3,480 256,480 C 379.7,480 480,379.7 480,256 C 480,132.3 379.7,32 256,32 Z M 256,434.4 C 157.6,434.4 79.2,356 79.2,257.6 C 79.2,159.2 157.6,80.8 256,80.8 C 354.4,80.8 432.8,159.2 432.8,257.6 C 432.8,356 354.4,434.4 256,434.4 Z"></path></svg>